<svg width="14" height="14" viewBox="0 0 14 14" fill="none" xmlns="http://www.w3.org/2000/svg">
<path d="M7.00004 3.66667C7.36671 3.66667 7.66671 3.96667 7.66671 4.33334V7C7.66671 7.36667 7.36671 7.66667 7.00004 7.66667C6.63337 7.66667 6.33337 7.36667 6.33337 7V4.33334C6.33337 3.96667 6.63337 3.66667 7.00004 3.66667ZM6.99337 0.333336C3.31337 0.333336 0.333374 3.32 0.333374 7C0.333374 10.68 3.31337 13.6667 6.99337 13.6667C10.68 13.6667 13.6667 10.68 13.6667 7C13.6667 3.32 10.68 0.333336 6.99337 0.333336ZM7.00004 12.3333C4.05337 12.3333 1.66671 9.94667 1.66671 7C1.66671 4.05334 4.05337 1.66667 7.00004 1.66667C9.94671 1.66667 12.3334 4.05334 12.3334 7C12.3334 9.94667 9.94671 12.3333 7.00004 12.3333ZM7.66671 9.66667C7.66671 10.0349 7.36823 10.3333 7.00004 10.3333C6.63185 10.3333 6.33337 10.0349 6.33337 9.66667C6.33337 9.29848 6.63185 9 7.00004 9C7.36823 9 7.66671 9.29848 7.66671 9.66667Z" fill="#EB003B"/>
</svg>
